<svg width="736" height="502" viewBox="0 0 736 502" fill="none" xmlns="http://www.w3.org/2000/svg">
<path d="M610.102 331.14C611.41 338.078 627.124 360.679 632.919 373.395C631.578 371.739 630.021 369.786 628.481 367.981C627.273 365.878 626.196 363.527 624.988 361.722C623.117 358.924 621.146 356.192 619.01 353.592C615.737 349.466 611.991 345.737 607.851 342.482C603.064 338.575 597.24 336.152 591.094 335.511C589.438 335.395 579.984 334.683 582.186 338.492C582.591 339.075 583.13 339.553 583.759 339.883C589.571 343.442 595.995 345.347 602.122 348.161C611.295 352.45 623.415 363.875 628.465 368.842L631.031 372.236C622.007 363.825 607.271 358.99 602.221 361.358C595.979 364.206 609.407 367.12 620.799 370.067C625.896 371.226 630.635 373.607 634.608 377.005C636.793 379.952 639.26 383.264 641.727 386.658C642.025 387.188 642.324 387.684 642.622 388.181C640.873 386.15 638.895 384.327 636.727 382.75C630.899 378.76 614.854 376.342 613.166 381.74C611.477 387.138 622.852 384.671 632.637 386.227C637.934 387.206 642.801 389.79 646.579 393.629L647.225 394.324C648.334 395.98 649.394 397.42 650.387 398.877C652.722 402.288 654.94 405.5 657.01 408.597C653.718 404.283 649.813 400.473 645.42 397.288C636.876 391.426 625.468 390.185 621.312 393.331C617.156 396.477 636.33 399.324 645.751 402.636C651.18 404.702 655.991 408.122 659.726 412.571C662.822 416.958 665.885 421.23 669.18 425.701C663.929 421.052 658.309 416.838 652.374 413.1C642.721 406.775 632.72 407.636 630.054 411.445C627.389 415.253 635.551 415.501 650.735 418.763C658.742 420.461 666.164 424.229 672.26 429.691L676.614 435.486C678.27 437.755 680.34 440.073 682.443 442.358C679.876 441.199 676.085 439.543 671.879 437.738C667.178 435.807 662.633 433.515 658.285 430.883C653.318 427.77 646.562 424.476 640.618 427.125C640.167 427.271 639.753 427.512 639.403 427.833C639.054 428.153 638.777 428.544 638.592 428.981C638.406 429.417 638.317 429.888 638.33 430.362C638.342 430.836 638.456 431.302 638.664 431.728C639.321 432.927 640.35 433.879 641.595 434.443C648.218 438.069 656.381 439.03 663.617 440.636C670.257 442.121 676.989 443.166 683.767 443.765C685.738 445.835 687.791 447.871 689.827 449.792L686.781 450.355C683.188 451.034 665.67 446.183 656.977 445.106C648.284 444.03 641.247 449.742 650.685 453.054C660.123 456.366 683.618 451.63 683.618 451.63L690.407 450.355C698.47 457.955 705.938 463.767 705.938 463.767L709.084 461.647C709.084 461.647 702.577 459.859 691.649 449.527C691.393 447.484 691.359 445.418 691.549 443.368C692.245 431.777 701.799 418.697 694.464 407.487C692.692 404.772 688.867 403.282 686.748 406.262C685.224 408.415 685.307 412.041 685.787 414.541C687.443 422.737 690.01 430.006 689.38 438.55C689.38 438.93 689.38 444.659 689.778 447.772C688.288 446.298 686.748 444.692 685.125 442.921C683.788 439.701 682.714 436.379 681.913 432.986C679.81 423.962 681.913 414.392 680.406 405.202C679.926 402.388 675.538 395.715 673.386 401.51C672.442 404.077 673.651 408.944 673.816 411.676C674.313 419.409 675.075 427.489 678.121 434.708L676.813 433.052C674.192 425.849 672.154 418.445 670.72 410.915C668.385 398.48 668.783 387.9 664.776 384.588C660.769 381.277 660.984 395.119 664.776 409.673C666.514 416.307 669.339 422.607 673.137 428.317C668.865 422.853 664.61 417.24 660.553 411.759C656.788 405.791 654.437 399.039 653.682 392.023C652.97 380.979 652.308 371.955 647.208 366.474C642.108 360.994 641.876 365.1 645.9 377.568C648.665 386.111 651.977 397.602 655.835 405.335C652.672 401.046 649.708 396.973 647.042 393.281C645.271 389.456 640.966 379.571 639.625 371.027C637.969 360.166 635.85 354.47 633.002 357.351C631.031 359.371 634.657 372.551 639.939 383.28C637.704 380.118 636.032 377.684 634.972 376.243C634.53 375.581 634.034 374.885 633.482 374.157C630.914 365.39 627.79 356.795 624.127 348.426C617.719 333.789 608.695 323.573 610.102 331.14Z" fill="#92E3A9"/>
<g opacity="0.6">
<path d="M610.102 331.14C611.41 338.078 627.124 360.679 632.919 373.395C631.578 371.739 630.021 369.786 628.481 367.981C627.273 365.878 626.196 363.527 624.988 361.722C623.117 358.924 621.146 356.192 619.01 353.592C615.737 349.466 611.991 345.737 607.851 342.482C603.064 338.575 597.24 336.152 591.094 335.511C589.438 335.395 579.984 334.683 582.186 338.492C582.591 339.075 583.13 339.553 583.759 339.883C589.571 343.442 595.995 345.347 602.122 348.161C611.295 352.45 623.415 363.875 628.465 368.842L631.031 372.236C622.007 363.825 607.271 358.99 602.221 361.358C595.979 364.206 609.407 367.12 620.799 370.067C625.896 371.226 630.635 373.607 634.608 377.005C636.793 379.952 639.26 383.264 641.727 386.658C642.025 387.188 642.324 387.684 642.622 388.181C640.873 386.15 638.895 384.327 636.727 382.75C630.899 378.76 614.854 376.342 613.166 381.74C611.477 387.138 622.852 384.671 632.637 386.227C637.934 387.206 642.801 389.79 646.579 393.629L647.225 394.324C648.334 395.98 649.394 397.42 650.387 398.877C652.722 402.288 654.94 405.5 657.01 408.597C653.718 404.283 649.813 400.473 645.42 397.288C636.876 391.426 625.468 390.185 621.312 393.331C617.156 396.477 636.33 399.324 645.751 402.636C651.18 404.702 655.991 408.122 659.726 412.571C662.822 416.958 665.885 421.23 669.18 425.701C663.929 421.052 658.309 416.838 652.374 413.1C642.721 406.775 632.72 407.636 630.054 411.445C627.389 415.253 635.551 415.501 650.735 418.763C658.742 420.461 666.164 424.229 672.26 429.691L676.614 435.486C678.27 437.755 680.34 440.073 682.443 442.358C679.876 441.199 676.085 439.543 671.879 437.738C667.178 435.807 662.633 433.515 658.285 430.883C653.318 427.77 646.562 424.476 640.618 427.125C640.167 427.271 639.753 427.512 639.403 427.833C639.054 428.153 638.777 428.544 638.592 428.981C638.406 429.417 638.317 429.888 638.33 430.362C638.342 430.836 638.456 431.302 638.664 431.728C639.321 432.927 640.35 433.879 641.595 434.443C648.218 438.069 656.381 439.03 663.617 440.636C670.257 442.121 676.989 443.166 683.767 443.765C685.738 445.835 687.791 447.871 689.827 449.792L686.781 450.355C683.188 451.034 665.67 446.183 656.977 445.106C648.284 444.03 641.247 449.742 650.685 453.054C660.123 456.366 683.618 451.63 683.618 451.63L690.407 450.355C698.47 457.955 705.938 463.767 705.938 463.767L709.084 461.647C709.084 461.647 702.577 459.859 691.649 449.527C691.393 447.484 691.359 445.418 691.549 443.368C692.245 431.777 701.799 418.697 694.464 407.487C692.692 404.772 688.867 403.282 686.748 406.262C685.224 408.415 685.307 412.041 685.787 414.541C687.443 422.737 690.01 430.006 689.38 438.55C689.38 438.93 689.38 444.659 689.778 447.772C688.288 446.298 686.748 444.692 685.125 442.921C683.788 439.701 682.714 436.379 681.913 432.986C679.81 423.962 681.913 414.392 680.406 405.202C679.926 402.388 675.538 395.715 673.386 401.51C672.442 404.077 673.651 408.944 673.816 411.676C674.313 419.409 675.075 427.489 678.121 434.708L676.813 433.052C674.192 425.849 672.154 418.445 670.72 410.915C668.385 398.48 668.783 387.9 664.776 384.588C660.769 381.277 660.984 395.119 664.776 409.673C666.514 416.307 669.339 422.607 673.137 428.317C668.865 422.853 664.61 417.24 660.553 411.759C656.788 405.791 654.437 399.039 653.682 392.023C652.97 380.979 652.308 371.955 647.208 366.474C642.108 360.994 641.876 365.1 645.9 377.568C648.665 386.111 651.977 397.602 655.835 405.335C652.672 401.046 649.708 396.973 647.042 393.281C645.271 389.456 640.966 379.571 639.625 371.027C637.969 360.166 635.85 354.47 633.002 357.351C631.031 359.371 634.657 372.551 639.939 383.28C637.704 380.118 636.032 377.684 634.972 376.243C634.53 375.581 634.034 374.885 633.482 374.157C630.914 365.39 627.79 356.795 624.127 348.426C617.719 333.789 608.695 323.573 610.102 331.14Z" fill="white"/>
</g>
<path d="M727.463 298.869C723.621 304.78 719.416 331.985 714.846 345.231C715.077 343.045 715.243 340.628 715.359 338.26C715.938 335.909 716.783 333.475 717.164 331.306C717.727 327.994 718.174 324.683 718.439 321.371C718.917 316.124 718.772 310.838 718.008 305.625C717.221 299.511 714.672 293.758 710.673 289.067C709.63 287.892 703.206 280.788 702.179 285.077C702.066 285.777 702.128 286.494 702.361 287.163C704.1 293.786 707.444 299.565 709.911 305.873C713.587 315.311 714.481 331.935 714.713 338.989C714.581 340.131 714.415 341.571 714.233 343.211C713.504 330.908 706.12 317.265 700.871 315.46C694.38 313.241 702.096 324.6 708.322 334.584C711.208 338.938 712.997 343.926 713.538 349.122C713.09 352.781 712.577 356.871 712.031 361.027C711.882 361.623 711.749 362.186 711.633 362.765C711.762 360.083 711.585 357.394 711.104 354.751C709.63 347.847 699.679 335.031 694.728 337.78C689.777 340.528 699.695 346.588 705.739 354.453C708.898 358.818 710.633 364.051 710.706 369.438C710.706 369.753 710.706 370.067 710.706 370.382C710.425 372.286 710.143 374.124 709.862 375.862C709.199 379.936 708.603 383.777 708.024 387.453C708.615 382.067 708.425 376.624 707.461 371.292C705.292 361.159 697.891 352.384 692.708 351.804C687.526 351.225 699.447 366.491 704 375.399C706.525 380.619 707.665 386.4 707.312 392.188C706.534 397.487 705.805 402.702 705.11 408.216C704.505 401.224 703.343 394.292 701.633 387.486C699 376.26 691.152 369.968 686.549 370.928C681.946 371.889 687.741 377.651 696.483 390.483C701.091 397.226 703.853 405.058 704.497 413.2C704.216 415.518 703.934 417.902 703.653 420.386C703.338 423.217 703.172 426.28 703.139 429.393C702.063 426.777 700.474 422.952 698.669 418.763C696.599 414.122 694.888 409.328 693.552 404.424C692.062 398.712 689.479 391.691 683.353 389.522C682.926 389.318 682.459 389.207 681.986 389.199C681.512 389.19 681.042 389.283 680.607 389.471C680.172 389.659 679.783 389.939 679.465 390.29C679.148 390.642 678.91 391.058 678.767 391.509C678.413 392.83 678.494 394.229 678.998 395.5C681.25 402.653 686.549 409.011 690.671 415.17C694.467 420.821 698.626 426.219 703.123 431.33C703.123 434.195 703.206 437.076 703.355 439.874L700.755 438.218C697.675 436.232 688.353 420.634 682.807 413.879C677.26 407.123 668.219 406.378 672.756 415.286C677.293 424.194 697.593 436.96 697.593 436.96L703.388 440.735C704 451.796 705.391 461.151 705.391 461.151L709.133 461.78C709.133 461.78 705.656 456.001 704.861 441C706.085 439.337 707.49 437.816 709.05 436.463C717.528 428.549 733.473 425.668 735.89 412.471C736.47 409.292 734.748 405.583 731.138 406.279C728.555 406.776 726.171 409.474 724.78 411.577C720.293 418.614 717.164 425.684 710.839 431.446C710.557 431.711 706.633 435.884 704.762 438.401C704.762 436.314 704.679 434.079 704.762 431.678C706.022 428.417 707.539 425.261 709.299 422.24C714.001 414.26 722.131 408.796 727.363 401.08C729.019 398.712 730.377 390.864 724.83 393.579C722.363 394.788 719.863 399.142 718.207 401.229C713.24 407.173 708.272 413.564 705.424 420.883C705.424 420.187 705.557 419.492 705.606 418.796C708.683 411.774 712.315 405.008 716.468 398.563C723.356 387.949 730.923 380.548 730.31 375.382C729.698 370.216 720.376 380.35 712.975 393.596C709.664 399.601 707.37 406.114 706.186 412.869C706.865 405.948 707.643 398.96 708.438 392.238C709.817 385.316 712.775 378.806 717.081 373.213C724.168 364.719 729.913 357.732 729.996 350.248C730.079 342.764 727.082 345.562 721.402 357.368C717.511 365.464 711.998 376.078 709.415 384.307C710.094 379.025 710.756 374.024 711.385 369.521C712.726 365.53 716.352 355.397 721.32 348.294C727.578 339.253 729.996 333.674 725.939 333.823C723.124 333.922 716.601 345.91 713.091 357.368C713.653 353.543 714.117 350.629 714.415 348.907C714.548 348.134 714.663 347.289 714.763 346.373C718.923 338.2 722.562 329.772 725.658 321.139C731.155 306.022 731.635 292.445 727.463 298.869Z" fill="#92E3A9"/>
<g opacity="0.6">
<path d="M727.463 298.869C723.621 304.78 719.416 331.985 714.846 345.231C715.077 343.045 715.243 340.628 715.359 338.26C715.938 335.909 716.783 333.475 717.164 331.306C717.727 327.994 718.174 324.683 718.439 321.371C718.917 316.124 718.772 310.838 718.008 305.625C717.221 299.511 714.672 293.758 710.673 289.067C709.63 287.892 703.206 280.788 702.179 285.077C702.066 285.777 702.128 286.494 702.361 287.163C704.1 293.786 707.444 299.565 709.911 305.873C713.587 315.311 714.481 331.935 714.713 338.989C714.581 340.131 714.415 341.571 714.233 343.211C713.504 330.908 706.12 317.265 700.871 315.46C694.38 313.241 702.096 324.6 708.322 334.584C711.208 338.938 712.997 343.926 713.538 349.122C713.09 352.781 712.577 356.871 712.031 361.027C711.882 361.623 711.749 362.186 711.633 362.765C711.762 360.083 711.585 357.394 711.104 354.751C709.63 347.847 699.679 335.031 694.728 337.78C689.777 340.528 699.695 346.588 705.739 354.453C708.898 358.818 710.633 364.051 710.706 369.438C710.706 369.753 710.706 370.067 710.706 370.382C710.425 372.286 710.143 374.124 709.862 375.862C709.199 379.936 708.603 383.777 708.024 387.453C708.615 382.067 708.425 376.624 707.461 371.292C705.292 361.159 697.891 352.384 692.708 351.804C687.526 351.225 699.447 366.491 704 375.399C706.525 380.619 707.665 386.4 707.312 392.188C706.534 397.487 705.805 402.702 705.11 408.216C704.505 401.224 703.343 394.292 701.633 387.486C699 376.26 691.152 369.968 686.549 370.928C681.946 371.889 687.741 377.651 696.483 390.483C701.091 397.226 703.853 405.058 704.497 413.2C704.216 415.518 703.934 417.902 703.653 420.386C703.338 423.217 703.172 426.28 703.139 429.393C702.063 426.777 700.474 422.952 698.669 418.763C696.599 414.122 694.888 409.328 693.552 404.424C692.062 398.712 689.479 391.691 683.353 389.522C682.926 389.318 682.459 389.207 681.986 389.199C681.512 389.19 681.042 389.283 680.607 389.471C680.172 389.659 679.783 389.939 679.465 390.29C679.148 390.642 678.91 391.058 678.767 391.509C678.413 392.83 678.494 394.229 678.998 395.5C681.25 402.653 686.549 409.011 690.671 415.17C694.467 420.821 698.626 426.219 703.123 431.33C703.123 434.195 703.206 437.076 703.355 439.874L700.755 438.218C697.675 436.232 688.353 420.634 682.807 413.879C677.26 407.123 668.219 406.378 672.756 415.286C677.293 424.194 697.593 436.96 697.593 436.96L703.388 440.735C704 451.796 705.391 461.151 705.391 461.151L709.133 461.78C709.133 461.78 705.656 456.001 704.861 441C706.085 439.337 707.49 437.816 709.05 436.463C717.528 428.549 733.473 425.668 735.89 412.471C736.47 409.292 734.748 405.583 731.138 406.279C728.555 406.776 726.171 409.474 724.78 411.577C720.293 418.614 717.164 425.684 710.839 431.446C710.557 431.711 706.633 435.884 704.762 438.401C704.762 436.314 704.679 434.079 704.762 431.678C706.022 428.417 707.539 425.261 709.299 422.24C714.001 414.26 722.131 408.796 727.363 401.08C729.019 398.712 730.377 390.864 724.83 393.579C722.363 394.788 719.863 399.142 718.207 401.229C713.24 407.173 708.272 413.564 705.424 420.883C705.424 420.187 705.557 419.492 705.606 418.796C708.683 411.774 712.315 405.008 716.468 398.563C723.356 387.949 730.923 380.548 730.31 375.382C729.698 370.216 720.376 380.35 712.975 393.596C709.664 399.601 707.37 406.114 706.186 412.869C706.865 405.948 707.643 398.96 708.438 392.238C709.817 385.316 712.775 378.806 717.081 373.213C724.168 364.719 729.913 357.732 729.996 350.248C730.079 342.764 727.082 345.562 721.402 357.368C717.511 365.464 711.998 376.078 709.415 384.307C710.094 379.025 710.756 374.024 711.385 369.521C712.726 365.53 716.352 355.397 721.32 348.294C727.578 339.253 729.996 333.674 725.939 333.823C723.124 333.922 716.601 345.91 713.091 357.368C713.653 353.543 714.117 350.629 714.415 348.907C714.548 348.134 714.663 347.289 714.763 346.373C718.923 338.2 722.562 329.772 725.658 321.139C731.155 306.022 731.635 292.445 727.463 298.869Z" fill="white"/>
</g>
<path d="M21.2622 358.343C22.0404 363.542 33.1174 380.878 37.0582 390.514C36.1144 389.173 35.0216 387.749 33.9122 386.358C33.0678 384.702 32.3392 382.964 31.4782 381.573C30.1702 379.437 28.7793 377.351 27.2726 375.347C24.9432 372.172 22.2478 369.282 19.2422 366.737C15.7883 363.687 11.5178 361.713 6.95639 361.058C5.78079 360.926 -1.32243 360.114 0.217429 363.012C0.495252 363.466 0.889757 363.838 1.3599 364.088C5.59866 366.919 10.3176 368.526 14.8213 370.86C21.5437 374.238 30.2364 383.179 33.8791 386.971L35.6839 389.57C29.2098 383.03 18.348 379.04 14.5067 380.613C9.77118 382.566 19.7058 385.133 28.117 387.666C31.8885 388.666 35.3568 390.576 38.2172 393.23C39.7736 395.481 41.5287 398.048 43.1845 400.647C43.3832 401.045 43.5984 401.426 43.8137 401.806C42.5711 400.238 41.1484 398.821 39.5749 397.584C35.3362 394.438 23.4312 392.17 22.0073 396.144C20.5833 400.118 29.1602 398.611 36.4124 400.051C40.3386 400.937 43.8986 403.006 46.6119 405.979C46.7609 406.178 46.91 406.343 47.0755 406.525C47.8537 407.717 48.5988 408.893 49.2943 410.002C50.95 412.619 52.4899 415.069 54.0297 417.437C51.6967 414.142 48.9095 411.193 45.7509 408.678C39.5418 404.058 31.0477 402.8 27.8687 405.035C24.6896 407.27 38.8961 410.002 45.8337 412.685C49.8232 414.367 53.3169 417.04 55.9835 420.45C58.1526 423.762 60.3216 427.073 62.6066 430.517C58.8214 426.88 54.7457 423.557 50.4202 420.583C43.3997 415.615 35.9157 415.93 33.8625 418.745C31.8094 421.56 37.8529 421.941 49.079 424.805C54.9932 426.308 60.4107 429.333 64.7922 433.581C65.7691 435.021 66.7957 436.495 67.8719 438.035C69.1625 439.863 70.5441 441.626 72.0113 443.316C70.1238 442.389 67.3586 441.031 64.2624 439.574C60.8153 437.992 57.4941 436.149 54.3278 434.061C50.6685 431.594 45.7675 428.944 41.2473 430.749C40.9056 430.834 40.5865 430.992 40.3117 431.212C40.037 431.431 39.8132 431.708 39.6558 432.023C39.4984 432.338 39.4112 432.683 39.4 433.035C39.3889 433.387 39.4543 433.737 39.5915 434.061C40.064 435.036 40.8515 435.823 41.8268 436.296C46.6285 439.194 52.7217 440.137 58.0864 441.545C62.9845 442.841 67.9625 443.815 72.9882 444.459C74.4122 446.115 75.8858 447.638 77.3429 449.128L75.0579 449.476C72.3425 449.873 59.4275 445.75 52.9866 444.674C46.5457 443.598 41.1148 447.688 48.0193 450.436C54.9239 453.185 72.624 450.32 72.624 450.32L77.7403 449.575C83.5354 455.47 88.9332 460.023 88.9332 460.023L91.3341 458.533C91.3341 458.533 86.5489 457.01 78.6841 448.996C78.5557 447.462 78.5945 445.918 78.8 444.393C79.6444 435.766 87.0788 426.279 81.9956 417.702C80.7538 415.632 77.9555 414.39 76.2666 416.576C75.2199 418.43 74.8844 420.602 75.3229 422.686C76.2832 428.845 78.0218 434.276 77.3263 440.684C77.3263 440.982 77.1608 445.254 77.3263 447.572C76.2666 446.446 75.1573 445.204 74.0148 443.83C73.1124 441.378 72.4037 438.859 71.8954 436.296C70.6039 429.507 72.4584 422.421 71.5808 415.533C71.2994 413.413 68.2693 408.314 66.448 412.569C65.6698 414.456 66.448 418.132 66.448 420.169C66.3293 426.038 67.1911 431.886 68.9978 437.472C68.6833 437.058 68.3686 436.644 68.0706 436.213C66.3509 430.788 65.0663 425.235 64.2292 419.606C62.855 410.267 63.451 402.386 60.5534 399.737C57.6559 397.087 57.4241 407.502 59.7918 418.447C60.907 423.452 62.8368 428.24 65.5042 432.62C62.4741 428.398 59.4606 424.11 56.5962 419.937C53.955 415.385 52.397 410.286 52.0428 405.035C51.8276 396.756 51.5792 390.034 47.9365 385.795C44.2939 381.556 43.9958 384.603 46.645 394.074C48.4664 400.531 50.6023 409.191 53.2681 415.086C51.0494 411.774 48.9465 408.661 47.0755 405.83C44.7164 400.455 43.0473 394.802 42.1082 389.007C41.1645 380.861 39.7736 376.539 37.5549 378.626C36.0316 380.066 38.3 390.001 41.9923 398.164C40.3366 395.73 39.2272 393.875 38.5484 392.766C38.2393 392.269 37.8916 391.717 37.5052 391.11C35.8388 384.48 33.7595 377.96 31.2796 371.589C26.9249 360.445 20.4343 352.597 21.2622 358.343Z" fill="#92E3A9"/>
<path opacity="0.6" d="M21.2622 358.343C22.0404 363.542 33.1174 380.878 37.0582 390.514C36.1144 389.173 35.0216 387.749 33.9122 386.358C33.0678 384.702 32.3392 382.964 31.4782 381.573C30.1702 379.437 28.7793 377.351 27.2726 375.347C24.9432 372.172 22.2478 369.282 19.2422 366.737C15.7883 363.687 11.5178 361.713 6.95639 361.058C5.78079 360.926 -1.32243 360.114 0.217429 363.012C0.495252 363.466 0.889757 363.838 1.3599 364.088C5.59866 366.919 10.3176 368.526 14.8213 370.86C21.5437 374.238 30.2364 383.179 33.8791 386.971L35.6839 389.57C29.2098 383.03 18.348 379.04 14.5067 380.613C9.77118 382.566 19.7058 385.133 28.117 387.666C31.8885 388.666 35.3568 390.576 38.2172 393.23C39.7736 395.481 41.5287 398.048 43.1845 400.647C43.3832 401.045 43.5984 401.426 43.8137 401.806C42.5711 400.238 41.1484 398.821 39.5749 397.584C35.3362 394.438 23.4312 392.17 22.0073 396.144C20.5833 400.118 29.1602 398.611 36.4124 400.051C40.3386 400.937 43.8986 403.006 46.6119 405.979C46.7609 406.178 46.91 406.343 47.0755 406.525C47.8537 407.717 48.5988 408.893 49.2943 410.002C50.95 412.619 52.4899 415.069 54.0297 417.437C51.6967 414.142 48.9095 411.193 45.7509 408.678C39.5418 404.058 31.0477 402.8 27.8687 405.035C24.6896 407.27 38.8961 410.002 45.8337 412.685C49.8232 414.367 53.3169 417.04 55.9835 420.45C58.1526 423.762 60.3216 427.073 62.6066 430.517C58.8214 426.88 54.7457 423.557 50.4202 420.583C43.3997 415.615 35.9157 415.93 33.8625 418.745C31.8094 421.56 37.8529 421.941 49.079 424.805C54.9932 426.308 60.4107 429.333 64.7922 433.581C65.7691 435.021 66.7957 436.495 67.8719 438.035C69.1625 439.863 70.5441 441.626 72.0113 443.316C70.1238 442.389 67.3586 441.031 64.2624 439.574C60.8153 437.992 57.4941 436.149 54.3278 434.061C50.6685 431.594 45.7675 428.944 41.2473 430.749C40.9056 430.834 40.5865 430.992 40.3117 431.212C40.037 431.431 39.8132 431.708 39.6558 432.023C39.4984 432.338 39.4112 432.683 39.4 433.035C39.3889 433.387 39.4543 433.737 39.5915 434.061C40.064 435.036 40.8515 435.823 41.8268 436.296C46.6285 439.194 52.7217 440.137 58.0864 441.545C62.9845 442.841 67.9625 443.815 72.9882 444.459C74.4122 446.115 75.8858 447.638 77.3429 449.128L75.0579 449.476C72.3425 449.873 59.4275 445.75 52.9866 444.674C46.5457 443.598 41.1148 447.688 48.0193 450.436C54.9239 453.185 72.624 450.32 72.624 450.32L77.7403 449.575C83.5354 455.47 88.9332 460.023 88.9332 460.023L91.3341 458.533C91.3341 458.533 86.5489 457.01 78.6841 448.996C78.5557 447.462 78.5945 445.918 78.8 444.393C79.6444 435.766 87.0788 426.279 81.9956 417.702C80.7538 415.632 77.9555 414.39 76.2666 416.576C75.2199 418.43 74.8844 420.602 75.3229 422.686C76.2832 428.845 78.0218 434.276 77.3263 440.684C77.3263 440.982 77.1608 445.254 77.3263 447.572C76.2666 446.446 75.1573 445.204 74.0148 443.83C73.1124 441.378 72.4037 438.859 71.8954 436.296C70.6039 429.507 72.4584 422.421 71.5808 415.533C71.2994 413.413 68.2693 408.314 66.448 412.569C65.6698 414.456 66.448 418.132 66.448 420.169C66.3293 426.038 67.1911 431.886 68.9978 437.472C68.6833 437.058 68.3686 436.644 68.0706 436.213C66.3509 430.788 65.0663 425.235 64.2292 419.606C62.855 410.267 63.451 402.386 60.5534 399.737C57.6559 397.087 57.4241 407.502 59.7918 418.447C60.907 423.452 62.8368 428.24 65.5042 432.62C62.4741 428.398 59.4606 424.11 56.5962 419.937C53.955 415.385 52.397 410.286 52.0428 405.035C51.8276 396.756 51.5792 390.034 47.9365 385.795C44.2939 381.556 43.9958 384.603 46.645 394.074C48.4664 400.531 50.6023 409.191 53.2681 415.086C51.0494 411.774 48.9465 408.661 47.0755 405.83C44.7164 400.455 43.0473 394.802 42.1082 389.007C41.1645 380.861 39.7736 376.539 37.5549 378.626C36.0316 380.066 38.3 390.001 41.9923 398.164C40.3366 395.73 39.2272 393.875 38.5484 392.766C38.2393 392.269 37.8916 391.717 37.5052 391.11C35.8388 384.48 33.7595 377.96 31.2796 371.589C26.9249 360.445 20.4343 352.597 21.2622 358.343Z" fill="white"/>
<path d="M141.172 354.237C136.751 357.085 125.542 374.321 118.389 381.905C119.217 380.481 120.045 378.891 120.873 377.318C121.982 375.878 123.307 374.487 124.184 373.129C125.591 371.043 126.916 368.907 128.125 366.705C130.051 363.279 131.568 359.639 132.645 355.859C134.01 351.453 134.044 346.742 132.744 342.315C132.397 341.189 130.195 334.384 128.191 337C127.894 337.438 127.717 337.946 127.678 338.474C126.833 343.441 127.33 348.409 127.065 353.525C126.684 361.075 122.197 372.665 120.177 377.567C119.747 378.295 119.2 379.222 118.521 380.282C121.833 371.689 120.955 360.148 117.942 357.3C114.2 353.79 115.972 363.923 117.147 372.599C117.777 376.452 117.465 380.401 116.236 384.107C114.812 386.441 113.206 389.074 111.567 391.74L110.756 392.8C111.732 391.025 112.494 389.141 113.024 387.187C114.134 382.037 111.368 370.265 107.08 370.629C102.792 370.993 107.792 378.146 109.464 385.349C110.291 389.291 109.874 393.392 108.272 397.088L107.974 397.734C107.196 398.942 106.451 400.101 105.722 401.194C104.067 403.777 102.411 406.162 100.887 408.562C102.939 405.082 104.479 401.323 105.457 397.403C107.113 389.836 104.745 381.59 101.401 379.603C98.0562 377.616 101.401 391.674 101.848 399.125C101.962 403.454 100.964 407.741 98.9503 411.576C96.7978 414.887 94.7115 418.199 92.5425 421.809C94.2576 416.856 95.5699 411.773 96.4666 406.609C98.1224 398.164 94.7115 391.475 91.2675 390.73C87.8235 389.985 90.0091 395.697 92.0292 407.089C93.1021 413.095 92.5826 419.278 90.5224 425.021C89.6118 426.511 88.7011 428.051 87.7407 429.657C86.7804 431.263 85.6214 433.515 84.6279 435.634C84.6279 433.515 84.7935 430.435 84.8432 427.024C84.864 423.226 85.1684 419.435 85.7538 415.682C86.4989 411.344 86.8963 405.748 83.3861 402.436C83.1593 402.162 82.8747 401.941 82.5527 401.79C82.2307 401.638 81.8792 401.56 81.5233 401.56C81.1675 401.56 80.816 401.638 80.494 401.79C80.172 401.941 79.8874 402.162 79.6606 402.436C79.0123 403.222 78.64 404.2 78.6009 405.218C77.9386 410.798 79.5944 416.808 80.5051 422.206C81.3574 427.244 82.5354 432.222 84.0318 437.108C83.1543 439.045 82.3761 441.049 81.5647 442.986L80.3064 441.049C78.8327 438.747 77.2598 425.269 75.5709 418.961C73.882 412.652 67.9213 409.39 68.2855 416.841C68.6498 424.292 78.5513 439.227 78.5513 439.227L81.3495 443.565C78.3691 451.265 76.3822 458.07 76.3822 458.07L78.7168 459.643C78.7168 459.643 78.1373 454.675 82.1939 444.194C83.5574 443.369 85.0135 442.708 86.532 442.224C94.8109 439.442 106.401 442.357 112.163 434.127C113.538 432.14 113.504 429.16 110.839 428.448C108.716 428.25 106.595 428.84 104.878 430.104C99.6622 433.515 95.3738 437.373 89.2972 439.343C89.0157 439.442 85.075 441.082 83.0218 442.208C83.6179 440.784 84.2968 439.244 85.075 437.638C86.926 435.819 88.9253 434.157 91.0523 432.67C96.6984 428.68 103.918 427.455 109.845 423.795C111.65 422.686 115.028 417.768 110.425 417.918C108.372 417.918 105.342 420.186 103.52 421.08C98.1217 423.391 93.1468 426.586 88.8004 430.534C89.0488 430.087 89.2972 429.624 89.5621 429.177C93.7833 425.311 98.3069 421.79 103.09 418.646C111.037 413.546 118.455 410.831 119.647 407.056C120.839 403.281 111.368 407.403 102.295 414.093C98.1929 417.166 94.6288 420.898 91.7477 425.137C94.3307 420.633 97.013 416.113 99.6126 411.791C102.692 407.518 106.715 404.011 111.368 401.542C118.819 397.932 124.863 394.919 127.214 389.952C129.565 384.984 126.668 385.878 119.184 392.17C114.051 396.492 107.047 402.006 102.759 406.824C104.845 403.512 106.832 400.201 108.636 397.369C112.552 393.023 117.003 389.189 121.883 385.961C128.92 381.739 132.281 378.676 129.466 377.533C127.512 376.739 119.399 382.898 113.488 389.621L116.982 384.272C117.313 383.776 117.66 383.229 118.008 382.617C123.34 378.362 128.4 373.778 133.158 368.89C141.52 360.231 146.007 351.141 141.172 354.237Z" fill="#92E3A9"/>
<path opacity="0.6" d="M141.172 354.237C136.751 357.085 125.542 374.321 118.389 381.905C119.217 380.481 120.045 378.891 120.873 377.318C121.982 375.878 123.307 374.487 124.184 373.129C125.591 371.043 126.916 368.907 128.125 366.705C130.051 363.279 131.568 359.639 132.645 355.859C134.01 351.453 134.044 346.742 132.744 342.315C132.397 341.189 130.195 334.384 128.191 337C127.894 337.438 127.717 337.946 127.678 338.474C126.833 343.441 127.33 348.409 127.065 353.525C126.684 361.075 122.197 372.665 120.177 377.567C119.747 378.295 119.2 379.222 118.521 380.282C121.833 371.689 120.955 360.148 117.942 357.3C114.2 353.79 115.972 363.923 117.147 372.599C117.777 376.452 117.465 380.401 116.236 384.107C114.812 386.441 113.206 389.074 111.567 391.74L110.756 392.8C111.732 391.025 112.494 389.141 113.024 387.187C114.134 382.037 111.368 370.265 107.08 370.629C102.792 370.993 107.792 378.146 109.464 385.349C110.291 389.291 109.874 393.392 108.272 397.088L107.974 397.734C107.196 398.942 106.451 400.101 105.722 401.194C104.067 403.777 102.411 406.162 100.887 408.562C102.939 405.082 104.479 401.323 105.457 397.403C107.113 389.836 104.745 381.59 101.401 379.603C98.0562 377.616 101.401 391.674 101.848 399.125C101.962 403.454 100.964 407.741 98.9503 411.576C96.7978 414.887 94.7115 418.199 92.5425 421.809C94.2576 416.856 95.5699 411.773 96.4666 406.609C98.1224 398.164 94.7115 391.475 91.2675 390.73C87.8235 389.985 90.0091 395.697 92.0292 407.089C93.1021 413.095 92.5826 419.278 90.5224 425.021C89.6118 426.511 88.7011 428.051 87.7407 429.657C86.7804 431.263 85.6214 433.515 84.6279 435.634C84.6279 433.515 84.7935 430.435 84.8432 427.024C84.864 423.226 85.1684 419.435 85.7538 415.682C86.4989 411.344 86.8963 405.748 83.3861 402.436C83.1593 402.162 82.8747 401.941 82.5527 401.79C82.2307 401.638 81.8792 401.56 81.5233 401.56C81.1675 401.56 80.816 401.638 80.494 401.79C80.172 401.941 79.8874 402.162 79.6606 402.436C79.0123 403.222 78.64 404.2 78.6009 405.218C77.9386 410.798 79.5944 416.808 80.5051 422.206C81.3574 427.244 82.5354 432.222 84.0318 437.108C83.1543 439.045 82.3761 441.049 81.5647 442.986L80.3064 441.049C78.8327 438.747 77.2598 425.269 75.5709 418.961C73.882 412.652 67.9213 409.39 68.2855 416.841C68.6498 424.292 78.5513 439.227 78.5513 439.227L81.3495 443.565C78.3691 451.265 76.3822 458.07 76.3822 458.07L78.7168 459.643C78.7168 459.643 78.1373 454.675 82.1939 444.194C83.5574 443.369 85.0135 442.708 86.532 442.224C94.8109 439.442 106.401 442.357 112.163 434.127C113.538 432.14 113.504 429.16 110.839 428.448C108.716 428.25 106.595 428.84 104.878 430.104C99.6622 433.515 95.3738 437.373 89.2972 439.343C89.0157 439.442 85.075 441.082 83.0218 442.208C83.6179 440.784 84.2968 439.244 85.075 437.638C86.926 435.819 88.9253 434.157 91.0523 432.67C96.6984 428.68 103.918 427.455 109.845 423.795C111.65 422.686 115.028 417.768 110.425 417.918C108.372 417.918 105.342 420.186 103.52 421.08C98.1217 423.391 93.1468 426.586 88.8004 430.534C89.0488 430.087 89.2972 429.624 89.5621 429.177C93.7833 425.311 98.3069 421.79 103.09 418.646C111.037 413.546 118.455 410.831 119.647 407.056C120.839 403.281 111.368 407.403 102.295 414.093C98.1929 417.166 94.6288 420.898 91.7477 425.137C94.3307 420.633 97.013 416.113 99.6126 411.791C102.692 407.518 106.715 404.011 111.368 401.542C118.819 397.932 124.863 394.919 127.214 389.952C129.565 384.984 126.668 385.878 119.184 392.17C114.051 396.492 107.047 402.006 102.759 406.824C104.845 403.512 106.832 400.201 108.636 397.369C112.552 393.023 117.003 389.189 121.883 385.961C128.92 381.739 132.281 378.676 129.466 377.533C127.512 376.739 119.399 382.898 113.488 389.621L116.982 384.272C117.313 383.776 117.66 383.229 118.008 382.617C123.34 378.362 128.4 373.778 133.158 368.89C141.52 360.231 146.007 351.141 141.172 354.237Z" fill="white"/>
<path d="M189.718 354.683C185.28 357.548 174.071 374.784 166.918 382.351C167.746 380.944 168.574 379.354 169.402 377.765C170.511 376.341 171.836 374.933 172.713 373.592C174.121 371.506 175.445 369.37 176.654 367.168C178.577 363.74 180.094 360.101 181.174 356.322C182.537 351.916 182.577 347.207 181.29 342.778C180.926 341.652 178.724 334.847 176.72 337.447C176.425 337.892 176.249 338.405 176.207 338.937C175.379 343.904 175.859 348.871 175.594 353.971C175.213 361.538 170.726 373.128 168.706 378.03C168.276 378.758 167.729 379.685 167.05 380.745C170.362 372.135 169.501 360.594 166.471 357.763C162.729 354.253 164.501 364.386 165.676 373.062C166.316 376.909 166.004 380.855 164.765 384.553C163.342 386.904 161.735 389.521 160.096 392.203C159.815 392.551 159.55 392.915 159.285 393.263C160.204 391.481 160.91 389.597 161.388 387.649C162.514 382.5 159.732 370.728 155.444 371.092C151.155 371.456 156.155 378.609 157.828 385.812C158.656 389.748 158.24 393.845 156.636 397.534L156.338 398.197C155.559 399.389 154.814 400.564 154.086 401.657C152.43 404.224 150.774 406.625 149.251 409.025C151.306 405.54 152.845 401.775 153.821 397.849C155.477 390.299 153.109 382.053 149.764 380.066C146.42 378.079 149.847 392.137 150.211 399.588C150.325 403.917 149.327 408.204 147.314 412.039C145.161 415.35 143.075 418.662 140.906 422.271C142.641 417.325 143.975 412.248 144.896 407.088C146.552 398.644 143.141 391.954 139.697 391.209C136.253 390.464 138.439 396.177 140.475 407.568C141.535 413.576 141.01 419.757 138.952 425.5C138.041 426.99 137.131 428.53 136.17 430.136C135.21 431.742 134.051 433.994 133.058 436.097C133.058 433.994 133.223 430.915 133.273 427.487C133.294 423.695 133.599 419.909 134.184 416.162C134.929 411.824 135.326 406.227 131.816 402.916C131.589 402.641 131.304 402.421 130.982 402.269C130.66 402.118 130.309 402.039 129.953 402.039C129.597 402.039 129.246 402.118 128.924 402.269C128.602 402.421 128.317 402.641 128.09 402.916C127.442 403.702 127.07 404.679 127.031 405.697C126.368 411.261 128.024 417.288 128.935 422.685C129.788 427.691 130.966 432.636 132.462 437.488C131.584 439.442 130.806 441.429 129.994 443.382L128.736 441.429C127.262 439.127 125.689 425.666 124.001 419.357C122.312 413.049 116.351 409.787 116.715 417.238C117.079 424.689 126.981 439.607 126.981 439.607L129.779 443.945C126.799 451.661 124.812 458.466 124.812 458.466L127.147 460.039C127.147 460.039 126.567 455.072 130.624 444.591C131.965 443.829 133.386 443.218 134.862 442.77C143.141 439.988 154.732 442.919 160.494 434.69C161.868 432.686 161.835 429.64 159.169 429.01C157.046 428.805 154.921 429.395 153.208 430.666C147.993 434.077 143.704 437.935 137.628 439.905C137.346 439.988 133.405 441.644 131.352 442.77C131.948 441.329 132.627 439.806 133.405 438.183C135.26 436.369 137.259 434.708 139.383 433.216C145.045 429.226 152.248 428 158.176 424.341C159.997 423.232 163.358 418.314 158.755 418.447C156.702 418.447 153.672 420.732 151.851 421.609C146.455 423.932 141.481 427.132 137.131 431.08L137.892 429.706C142.139 425.868 146.685 422.374 151.486 419.258C159.434 414.142 166.852 411.443 168.044 407.668C169.236 403.893 159.765 408.015 150.691 414.705C146.589 417.778 143.025 421.51 140.144 425.749C142.727 421.245 145.41 416.725 148.009 412.387C151.073 408.105 155.078 404.582 159.715 402.088C167.166 398.478 173.21 395.465 175.561 390.415C177.912 385.365 175.015 386.325 167.531 392.633C162.398 396.938 155.394 402.469 151.105 407.287C153.192 403.893 155.179 400.664 156.983 397.816C160.905 393.479 165.355 389.652 170.229 386.424C177.266 382.185 180.628 379.139 177.813 377.996C175.859 377.202 167.746 383.361 161.835 390.083C163.491 387.649 164.616 385.812 165.328 384.735C165.66 384.239 166.007 383.692 166.355 383.08C171.691 378.829 176.756 374.251 181.522 369.37C190.032 360.694 194.52 351.604 189.718 354.683Z" fill="#92E3A9"/>
<path opacity="0.6" d="M189.718 354.683C185.28 357.548 174.071 374.784 166.918 382.351C167.746 380.944 168.574 379.354 169.402 377.765C170.511 376.341 171.836 374.933 172.713 373.592C174.121 371.506 175.445 369.37 176.654 367.168C178.577 363.74 180.094 360.101 181.174 356.322C182.537 351.916 182.577 347.207 181.29 342.778C180.926 341.652 178.724 334.847 176.72 337.447C176.425 337.892 176.249 338.405 176.207 338.937C175.379 343.904 175.859 348.871 175.594 353.971C175.213 361.538 170.726 373.128 168.706 378.03C168.276 378.758 167.729 379.685 167.05 380.745C170.362 372.135 169.501 360.594 166.471 357.763C162.729 354.253 164.501 364.386 165.676 373.062C166.316 376.909 166.004 380.855 164.765 384.553C163.342 386.904 161.735 389.521 160.096 392.203C159.815 392.551 159.55 392.915 159.285 393.263C160.204 391.481 160.91 389.597 161.388 387.649C162.514 382.5 159.732 370.728 155.444 371.092C151.155 371.456 156.155 378.609 157.828 385.812C158.656 389.748 158.24 393.845 156.636 397.534L156.338 398.197C155.559 399.389 154.814 400.564 154.086 401.657C152.43 404.224 150.774 406.625 149.251 409.025C151.306 405.54 152.845 401.775 153.821 397.849C155.477 390.299 153.109 382.053 149.764 380.066C146.42 378.079 149.847 392.137 150.211 399.588C150.325 403.917 149.327 408.204 147.314 412.039C145.161 415.35 143.075 418.662 140.906 422.271C142.641 417.325 143.975 412.248 144.896 407.088C146.552 398.644 143.141 391.954 139.697 391.209C136.253 390.464 138.439 396.177 140.475 407.568C141.535 413.576 141.01 419.757 138.952 425.5C138.041 426.99 137.131 428.53 136.17 430.136C135.21 431.742 134.051 433.994 133.058 436.097C133.058 433.994 133.223 430.915 133.273 427.487C133.294 423.695 133.599 419.909 134.184 416.162C134.929 411.824 135.326 406.227 131.816 402.916C131.589 402.641 131.304 402.421 130.982 402.269C130.66 402.118 130.309 402.039 129.953 402.039C129.597 402.039 129.246 402.118 128.924 402.269C128.602 402.421 128.317 402.641 128.09 402.916C127.442 403.702 127.07 404.679 127.031 405.697C126.368 411.261 128.024 417.288 128.935 422.685C129.788 427.691 130.966 432.636 132.462 437.488C131.584 439.442 130.806 441.429 129.994 443.382L128.736 441.429C127.262 439.127 125.689 425.666 124.001 419.357C122.312 413.049 116.351 409.787 116.715 417.238C117.079 424.689 126.981 439.607 126.981 439.607L129.779 443.945C126.799 451.661 124.812 458.466 124.812 458.466L127.147 460.039C127.147 460.039 126.567 455.072 130.624 444.591C131.965 443.829 133.386 443.218 134.862 442.77C143.141 439.988 154.732 442.919 160.494 434.69C161.868 432.686 161.835 429.64 159.169 429.01C157.046 428.805 154.921 429.395 153.208 430.666C147.993 434.077 143.704 437.935 137.628 439.905C137.346 439.988 133.405 441.644 131.352 442.77C131.948 441.329 132.627 439.806 133.405 438.183C135.26 436.369 137.259 434.708 139.383 433.216C145.045 429.226 152.248 428 158.176 424.341C159.997 423.232 163.358 418.314 158.755 418.447C156.702 418.447 153.672 420.732 151.851 421.609C146.455 423.932 141.481 427.132 137.131 431.08L137.892 429.706C142.139 425.868 146.685 422.374 151.486 419.258C159.434 414.142 166.852 411.443 168.044 407.668C169.236 403.893 159.765 408.015 150.691 414.705C146.589 417.778 143.025 421.51 140.144 425.749C142.727 421.245 145.41 416.725 148.009 412.387C151.073 408.105 155.078 404.582 159.715 402.088C167.166 398.478 173.21 395.465 175.561 390.415C177.912 385.365 175.015 386.325 167.531 392.633C162.398 396.938 155.394 402.469 151.105 407.287C153.192 403.893 155.179 400.664 156.983 397.816C160.905 393.479 165.355 389.652 170.229 386.424C177.266 382.185 180.628 379.139 177.813 377.996C175.859 377.202 167.746 383.361 161.835 390.083C163.491 387.649 164.616 385.812 165.328 384.735C165.66 384.239 166.007 383.692 166.355 383.08C171.691 378.829 176.756 374.251 181.522 369.37C190.032 360.694 194.52 351.604 189.718 354.683Z" fill="white"/>
<path d="M704.877 41.0833C704.877 41.0833 698.535 22.8699 680.289 22.0586C662.042 21.2473 665.221 38.7156 652.538 43.4676C639.855 48.2197 635.086 34.7418 623.976 37.9208C612.866 41.0999 620.019 49.8092 610.498 52.9883C600.978 56.1673 601.772 47.4415 587.5 54.644C573.227 61.8466 570.048 64.1647 566.869 64.9594C563.69 65.7542 535.145 70.5063 535.145 70.5063H732.644C732.644 70.5063 738.207 53.0545 727.097 45.9182C715.987 38.7818 716.782 47.4415 704.877 41.0833Z" fill="#92E3A9"/>
<path opacity="0.7" d="M704.877 41.0833C704.877 41.0833 698.535 22.8699 680.289 22.0586C662.042 21.2473 665.221 38.7156 652.538 43.4676C639.855 48.2197 635.086 34.7418 623.976 37.9208C612.866 41.0999 620.019 49.8092 610.498 52.9883C600.978 56.1673 601.772 47.4415 587.5 54.644C573.227 61.8466 570.048 64.1647 566.869 64.9594C563.69 65.7542 535.145 70.5063 535.145 70.5063H732.644C732.644 70.5063 738.207 53.0545 727.097 45.9182C715.987 38.7818 716.782 47.4415 704.877 41.0833Z" fill="white"/>
<path d="M341.967 11.6095C341.967 11.6095 338.109 0.549001 327.065 0.0191563C316.021 -0.510688 317.942 10.1028 310.243 13.0004C302.544 15.8979 299.662 7.70191 292.924 9.68882C286.185 11.6757 290.523 16.9079 284.761 18.8286C278.999 20.7493 279.462 15.5171 270.803 19.789C262.143 24.0609 260.239 25.5676 258.302 26.0478C256.364 26.5279 239.078 29.3593 239.078 29.3593H358.806C358.806 29.3593 362.118 18.779 355.495 14.4574C348.872 10.1359 349.17 15.4509 341.967 11.6095Z" fill="#92E3A9"/>
<path opacity="0.8" d="M341.967 11.6095C341.967 11.6095 338.109 0.549001 327.065 0.0191563C316.021 -0.510688 317.942 10.1028 310.243 13.0004C302.544 15.8979 299.662 7.70191 292.924 9.68882C286.185 11.6757 290.523 16.9079 284.761 18.8286C278.999 20.7493 279.462 15.5171 270.803 19.789C262.143 24.0609 260.239 25.5676 258.302 26.0478C256.364 26.5279 239.078 29.3593 239.078 29.3593H358.806C358.806 29.3593 362.118 18.779 355.495 14.4574C348.872 10.1359 349.17 15.4509 341.967 11.6095Z" fill="white"/>
<path d="M140.559 206.012C140.559 206.012 135.377 191.11 120.491 190.481C105.606 189.852 108.172 204.075 97.8239 207.966C87.4753 211.857 83.5677 200.83 74.5107 203.429C65.4537 206.029 71.1992 213.132 63.4999 215.732C55.8006 218.331 56.3801 211.195 44.7235 217.023C33.067 222.851 30.484 224.789 27.8844 225.451C25.2849 226.113 1.98828 229.971 1.98828 229.971H163.227C163.227 229.971 167.747 215.732 158.69 209.903C149.633 204.075 150.262 211.228 140.559 206.012Z" fill="#92E3A9"/>
<g opacity="0.7">
<path d="M140.559 206.012C140.559 206.012 135.377 191.11 120.491 190.481C105.606 189.852 108.172 204.075 97.8239 207.966C87.4753 211.857 83.5677 200.83 74.5107 203.429C65.4537 206.029 71.1992 213.132 63.4999 215.732C55.8006 218.331 56.3801 211.195 44.7235 217.023C33.067 222.851 30.484 224.789 27.8844 225.451C25.2849 226.113 1.98828 229.971 1.98828 229.971H163.227C163.227 229.971 167.747 215.732 158.69 209.903C149.633 204.075 150.262 211.228 140.559 206.012Z" fill="white"/>
</g>
<path d="M332.083 501.567C429.07 501.567 507.693 495.992 507.693 489.115C507.693 482.239 429.07 476.664 332.083 476.664C235.096 476.664 156.473 482.239 156.473 489.115C156.473 495.992 235.096 501.567 332.083 501.567Z" fill="#92E3A9"/>
<path d="M496.631 480.838C551.617 480.838 596.192 478.051 596.192 474.612C596.192 471.174 551.617 468.387 496.631 468.387C441.645 468.387 397.07 471.174 397.07 474.612C397.07 478.051 441.645 480.838 496.631 480.838Z" fill="#92E3A9"/>
<g opacity="0.6">
<path d="M332.083 501.567C429.07 501.567 507.693 495.992 507.693 489.115C507.693 482.239 429.07 476.664 332.083 476.664C235.096 476.664 156.473 482.239 156.473 489.115C156.473 495.992 235.096 501.567 332.083 501.567Z" fill="white"/>
<path d="M496.631 480.838C551.617 480.838 596.192 478.051 596.192 474.612C596.192 471.174 551.617 468.387 496.631 468.387C441.645 468.387 397.07 471.174 397.07 474.612C397.07 478.051 441.645 480.838 496.631 480.838Z" fill="white"/>
</g>
<path d="M330.809 303.457L361.689 281.336" stroke="#263238" stroke-width="0.835087" stroke-linecap="round" stroke-linejoin="round"/>
<path d="M428.416 457.126L426.678 476.747C426.678 476.747 417.886 480.605 417.902 481.896C417.919 483.188 419.558 484.96 426.728 484.96C433.897 484.96 436.232 482.244 436.232 480.208C436.232 478.171 451.498 461.199 451.498 461.199C451.872 460.181 451.976 459.082 451.799 458.011C451.622 456.94 451.17 455.934 450.488 455.09C448.103 452.374 439.957 452.043 439.957 452.043L428.416 457.126Z" fill="#D1D1D1"/>
<path d="M417.918 483.206C417.918 483.206 429.856 482.428 433.052 480.607C436.247 478.785 447.622 461.466 448.533 460.092C449.129 458.97 449.441 457.719 449.444 456.449" stroke="#263238" stroke-width="0.417543" stroke-linecap="round" stroke-linejoin="round"/>
<path d="M443.713 452.324C443.713 452.324 453.399 454.162 452.472 458.318C451.544 462.474 436.344 480.903 434.043 483.155C431.741 485.406 417.485 485.456 417.916 483.155C418.346 480.853 426.675 476.697 426.675 476.697L429.44 460.139" stroke="#263238" stroke-width="0.835087" stroke-linecap="round" stroke-linejoin="round"/>
<path d="M239.723 473.07L211.211 486.995C211.211 486.995 207.485 489.711 214.953 489.711C222.42 489.711 261.778 490.042 261.778 490.042C261.778 490.042 266.198 491.068 267.208 489.032C268.864 485.72 269.593 483.601 268.566 482.574C267.54 481.548 239.723 473.07 239.723 473.07Z" fill="#D1D1D1"/>
<path d="M213.895 486.516H264.478" stroke="#263238" stroke-width="0.417543" stroke-linecap="round" stroke-linejoin="round"/>
<path d="M237.803 474.844C237.803 474.844 208.761 487.295 209.224 488.669C209.688 490.044 238.713 490.06 249.774 490.06C260.834 490.06 268.683 490.524 268.683 487.759" stroke="#40494E" stroke-width="0.835087" stroke-linecap="round" stroke-linejoin="round"/>
<path d="M443.715 452.324L347.863 382.269L344.551 311.75C341.019 314.859 337.032 317.411 332.729 319.317C326.801 321.585 292.461 338.938 292.461 338.938C292.461 338.938 307.677 392.866 310.443 397.486C313.208 402.105 429.359 460.156 429.359 460.156L443.715 452.324Z" fill="#263238"/>
<path d="M268.669 484.994C268.669 484.994 264.977 484.067 260.837 483.14C256.698 482.213 237.789 474.861 237.789 474.861C237.415 473.357 237.259 471.807 237.325 470.258C237.374 469.26 237.648 468.285 238.127 467.408C238.606 466.53 239.277 465.773 240.091 465.191C240.091 465.191 168.181 369.323 166.343 366.558C164.505 363.793 165.879 359.173 178.331 349.503C190.782 339.834 272.245 290.111 272.245 290.111C269.116 286.402 275.011 284.117 275.011 284.117L282.395 286.419L330.793 303.473L350.149 290.575C350.149 290.575 353.378 302.546 341.39 311.768C329.402 320.991 219.807 369.72 219.807 369.72L217.986 369.836L267.295 477.56C267.295 477.56 270.606 483.455 268.669 484.994Z" fill="#263238"/>
<path d="M207.52 357.58L216.626 368.972L212.984 353.938" stroke="white" stroke-width="0.835087" stroke-linecap="round" stroke-linejoin="round"/>
<path d="M297.277 339.816C297.277 339.816 315.954 368.974 322.793 374.902" stroke="white" stroke-width="0.835087" stroke-linecap="round" stroke-linejoin="round"/>
<path d="M300.012 338.906C305.16 343.411 310.64 347.524 316.404 351.209" stroke="white" stroke-width="0.835087" stroke-linecap="round" stroke-linejoin="round"/>
<g style="mix-blend-mode:multiply">
<path d="M332.76 184.539L268.086 228.615L282.226 286.898L330.227 302.992L394.272 257.36L386.539 198.729L332.76 184.539Z" fill="#92E3A9"/>
</g>
<path d="M268.434 228.613L272.54 246.827" stroke="#263238" stroke-width="0.835087" stroke-linecap="round" stroke-linejoin="round"/>
<path d="M275.953 260.125L282.411 286.402L330.809 303.456L324.815 260.125" stroke="#263238" stroke-width="0.835087" stroke-linecap="round" stroke-linejoin="round"/>
<path d="M324.35 256.447L322.512 245.387" stroke="#263238" stroke-width="0.835087" stroke-linecap="round" stroke-linejoin="round"/>
<path d="M381.508 267.51L394.406 257.823L387.949 202.984" stroke="#263238" stroke-width="0.835087" stroke-linecap="round" stroke-linejoin="round"/>
<path d="M328.953 242.16L363.989 215.883" stroke="#263238" stroke-width="0.835087" stroke-linecap="round" stroke-linejoin="round"/>
<path d="M362.153 192.371L333.111 184.539L269.496 227.87" stroke="#263238" stroke-width="0.835087" stroke-linecap="round" stroke-linejoin="round"/>
<path d="M269.957 229.707L279.643 232.472" stroke="#263238" stroke-width="0.835087" stroke-linecap="round" stroke-linejoin="round"/>
<path d="M296.234 236.164L322.511 243.532" stroke="#263238" stroke-width="0.835087" stroke-linecap="round" stroke-linejoin="round"/>
<path d="M357.534 191.461L317.895 221.877" stroke="#263238" stroke-width="0.417543" stroke-linecap="round" stroke-linejoin="round"/>
<path d="M314.664 224.641L300.375 235.701" stroke="#263238" stroke-width="0.417543" stroke-linecap="round" stroke-linejoin="round"/>
<path d="M358.525 166.027C358.525 166.027 368.592 249.063 368.592 252.756C368.592 256.448 359.37 258.286 359.37 262.889C359.112 266.664 358.337 270.385 357.068 273.949C357.068 273.949 355.23 275.804 355.23 277.261C355.23 278.718 358.459 278.188 361.224 276.814C363.989 275.44 364.9 270.356 364.9 270.356C364.267 273.402 363.809 276.481 363.526 279.579L361.688 281.417C361.688 281.417 356.158 286.484 359.833 286.947C363.509 287.411 380.58 280.953 381.507 276.814C382.435 272.675 379.189 252.838 379.189 252.838C379.189 252.838 392.568 159.271 392.568 150.512C392.632 148.064 391.964 145.653 390.648 143.588C389.332 141.523 387.429 139.898 385.183 138.922" fill="white"/>
<g style="mix-blend-mode:multiply" opacity="0.3">
<path d="M392.504 162.17C390.566 154.802 388.464 141.424 388.464 141.424L379.688 138.758L368.098 152.683L377.254 147.053V257.542C377.254 263.172 370.217 284.978 370.217 284.978C370.217 284.978 384.771 281.915 382.42 268.669C380.069 255.423 377.254 257.542 381.476 230.802C385.698 204.061 394.507 169.588 392.504 162.17Z" fill="#92E3A9"/>
</g>
<path d="M358.525 166.027C358.525 166.027 368.592 249.063 368.592 252.756C368.592 256.448 359.37 258.286 359.37 262.889C359.112 266.664 358.337 270.385 357.068 273.949C357.068 273.949 355.23 275.804 355.23 277.261C355.23 278.718 358.459 278.188 361.224 276.814C363.989 275.44 364.9 270.356 364.9 270.356C364.267 273.402 363.809 276.481 363.526 279.579L361.688 281.417C361.688 281.417 356.158 286.484 359.833 286.947C363.509 287.411 380.58 280.953 381.507 276.814C382.435 272.675 379.189 252.838 379.189 252.838C379.189 252.838 392.568 159.271 392.568 150.512C392.632 148.064 391.964 145.653 390.648 143.588C389.332 141.523 387.429 139.898 385.183 138.922" stroke="#263238" stroke-width="0.835087" stroke-linecap="round" stroke-linejoin="round"/>
<path d="M369.67 276.035C370.172 278.003 370.009 280.081 369.206 281.946C368.3 283.427 367.234 284.804 366.027 286.053" stroke="#263238" stroke-width="0.417543" stroke-linecap="round" stroke-linejoin="round"/>
<path d="M375.183 276.035C374.911 277.898 374.451 279.729 373.809 281.499" stroke="#263238" stroke-width="0.417543" stroke-linecap="round" stroke-linejoin="round"/>
<path d="M379.288 274.66C379.01 276.522 378.549 278.352 377.914 280.124" stroke="#263238" stroke-width="0.417543" stroke-linecap="round" stroke-linejoin="round"/>
<path d="M230.386 102.098C229.856 97.3293 220.319 88.322 207.073 85.6727C193.827 83.0235 179.504 83.0235 174.206 87.3285C172.219 88.9015 170.894 92.5607 170.033 96.5014C170.977 94.4814 172.881 90.3916 174.852 88.7524C184.604 80.6226 187.32 85.4409 188.942 92.5441C190.565 99.6474 188.396 119.036 188.396 119.036C188.396 119.036 166.176 125.544 169.421 114.152C168.944 112.529 168.612 110.866 168.427 109.185C168.427 110.029 168.427 110.542 168.427 110.542L167.368 117.43L158.36 119.086L127.066 118.093C127.066 118.093 142.995 128.027 152.002 128.027C157.823 127.787 163.4 125.627 167.864 121.884L225.816 126.305C225.816 126.305 230.916 106.867 230.386 102.098Z" fill="#DEDEDE"/>
<path d="M162.831 118.624L127 118.078C127 118.078 136.935 127.449 150.181 127.449C163.427 127.449 167.831 121.936 167.831 121.936L225.783 126.356C225.783 126.356 233.35 111.935 229.492 99.2681C225.634 86.6015 190.863 82.3462 181.193 84.6809C169.239 87.5784 168.444 97.6786 168.444 103.192C168.356 107.259 167.986 111.314 167.334 115.329" stroke="#DEDEDE" stroke-width="0.835087" stroke-linecap="round" stroke-linejoin="round"/>
<g style="mix-blend-mode:multiply" opacity="0.3">
<path d="M196.327 124.4L172.931 124.814C172.931 124.814 166.308 134.665 167.964 137.547C169.245 139.538 170.939 141.232 172.931 142.514C172.931 142.514 171.276 155.661 173.345 160.181C175.415 164.701 191.824 162.631 191.824 162.631C188.193 164.778 184.11 166.048 179.902 166.34C172.103 167.152 169.653 165.512 168.411 160.992C167.169 156.472 166.755 143.491 166.755 143.491L161.043 137.547L165.149 126.453L169.67 121.949L196.327 124.4Z" fill="#92E3A9"/>
</g>
<path d="M165.595 123.59C165.595 123.59 159.519 137.929 162.284 140.147C165.049 142.366 166.688 143.459 166.688 143.459C166.688 143.459 168.344 162.749 171.092 166.06C173.841 169.372 191.491 163.858 191.491 163.858C191.491 163.858 227.272 199.672 228.432 193.049C229.591 186.426 225.12 161.59 225.12 158.874C225.12 156.159 217.404 148.94 217.404 148.94" stroke="#263238" stroke-width="0.835087" stroke-linecap="round" stroke-linejoin="round"/>
<path d="M197.57 124.137C197.57 124.137 198.663 129.104 201.975 129.65C205.286 130.197 208.035 124.683 208.035 124.683L197.57 124.137Z" fill="#263238"/>
<path d="M225.619 126.354C225.619 126.354 228.93 136.289 225.056 141.786C221.181 147.283 219.559 147.3 219.559 147.3C216.247 152.813 207.422 140.677 207.422 140.677C207.422 140.677 214.045 140.378 215.701 135.974C217.356 131.57 215.038 125.129 215.038 125.129L225.619 126.354Z" fill="#263238"/>
<path d="M215.684 126.355C215.684 126.355 217.34 134.071 215.684 137.946C214.028 141.82 207.405 140.694 207.405 140.694L204.094 148.973" stroke="#263238" stroke-width="0.835087" stroke-linecap="round" stroke-linejoin="round"/>
<path d="M170.613 146.639C170.613 146.639 177.005 148.013 181.094 140.711" stroke="#263238" stroke-width="0.626315" stroke-linecap="round" stroke-linejoin="round"/>
<path d="M284.095 182.502L270.547 187.492L278.198 208.265L291.747 203.275L284.095 182.502Z" fill="#263238"/>
<path d="M281.721 187.149L275.242 189.535L278.79 199.168L285.269 196.782L281.721 187.149Z" fill="white"/>
<path d="M276.945 179.334L274.086 180.387L276.415 186.71L279.274 185.657L276.945 179.334Z" fill="white" stroke="#263238" stroke-width="0.417543" stroke-linecap="round" stroke-linejoin="round"/>
<path d="M262.758 270.109L275.027 284.101" stroke="#263238" stroke-width="0.835087" stroke-linecap="round" stroke-linejoin="round"/>
<path d="M398.123 104.32L385.953 111.34L379.082 99.3359L391.235 92.332L398.123 104.32Z" stroke="#263238" stroke-width="0.835087" stroke-linecap="round" stroke-linejoin="round"/>
<path d="M394.019 90.6588L374.861 101.719L363.453 80.5917L382.61 69.5312L394.019 90.6588Z" stroke="#263238" stroke-width="0.835087" stroke-linecap="round" stroke-linejoin="round"/>
<path d="M578.464 359.1C635.986 301.577 635.986 208.314 578.464 150.791C520.941 93.2678 427.677 93.2678 370.155 150.791C312.632 208.314 312.632 301.577 370.155 359.1C427.677 416.623 520.941 416.623 578.464 359.1Z" fill="white"/>
<path d="M475.6 82.3789C441.969 82.3691 409.09 92.3329 381.122 111.01C353.154 129.687 331.353 156.239 318.477 187.307C305.6 218.375 302.226 252.564 308.781 285.55C315.336 318.536 331.526 348.837 355.303 372.621C379.08 396.406 409.376 412.604 442.36 419.169C475.344 425.734 509.534 422.369 540.606 409.502C571.678 396.634 598.236 374.841 616.922 346.878C635.607 318.916 645.58 286.04 645.58 252.409C645.58 207.323 627.673 164.083 595.797 132.197C563.921 100.312 520.686 82.3921 475.6 82.3789V82.3789ZM475.6 399.706C446.454 399.706 417.963 391.063 393.729 374.871C369.495 358.678 350.608 335.663 339.454 308.736C328.3 281.809 325.382 252.18 331.068 223.594C336.754 195.008 350.789 168.751 371.398 148.142C392.007 127.533 418.265 113.498 446.851 107.812C475.436 102.126 505.066 105.044 531.993 116.197C558.92 127.351 581.935 146.239 598.127 170.473C614.32 194.706 622.963 223.197 622.963 252.343C622.963 271.695 619.151 290.858 611.745 308.736C604.34 326.615 593.485 342.86 579.801 356.544C566.117 370.228 549.872 381.083 531.993 388.489C514.114 395.894 494.952 399.706 475.6 399.706Z" fill="#263238" stroke="#263238" stroke-width="0.835087" stroke-linecap="round" stroke-linejoin="round"/>
<path d="M579.93 124.153C562.984 110.346 543.466 100.041 522.508 93.8359" stroke="#92E3A9" stroke-width="1.67017" stroke-linecap="round" stroke-linejoin="round"/>
<path d="M506.827 90.0277C500.804 88.8851 494.724 88.0725 488.613 87.5938" stroke="#92E3A9" stroke-width="1.67017" stroke-linecap="round" stroke-linejoin="round"/>
<path d="M599.616 343.313C619.481 316.187 629.912 283.301 629.314 249.685C628.716 216.068 617.122 183.574 596.305 157.172" stroke="#FF0000" stroke-width="0.835087" stroke-linecap="round" stroke-linejoin="round"/>
<path d="M578.125 366.97C582.953 362.658 587.499 358.04 591.735 353.145" stroke="#92E3A9" stroke-width="0.835087" stroke-linecap="round" stroke-linejoin="round"/>
<path d="M413.094 392.916C438.935 404.392 467.437 408.532 495.476 404.881C523.514 401.23 550.006 389.93 572.047 372.219" stroke="#FF0000" stroke-width="0.835087" stroke-linecap="round" stroke-linejoin="round"/>
<path d="M391.152 380.914C395.752 383.929 400.511 386.692 405.408 389.193" stroke="#92E3A9" stroke-width="0.835087" stroke-linecap="round" stroke-linejoin="round"/>
<path d="M374.664 368.395C378.542 371.769 382.587 374.947 386.784 377.915" stroke="#92E3A9" stroke-width="0.835087" stroke-linecap="round" stroke-linejoin="round"/>
<path d="M433.079 104.617C406.951 112.141 383.285 126.457 364.493 146.107C345.701 165.757 332.454 190.038 326.102 216.475C319.751 242.912 320.522 270.561 328.337 296.603C336.152 322.645 350.732 346.149 370.591 364.721" stroke="#FF0000" stroke-width="0.835087" stroke-linecap="round" stroke-linejoin="round"/>
<path d="M584.315 143.692C566.329 125.729 544.176 112.498 519.832 105.179C495.488 97.8612 469.711 96.6835 444.801 101.751" stroke="#FF0000" stroke-width="0.835087" stroke-linecap="round" stroke-linejoin="round"/>
<path d="M487.951 252.409C487.951 249.52 486.936 246.722 485.084 244.504C483.232 242.286 480.661 240.788 477.818 240.273L476.51 159.355H474.672L473.38 240.273C470.565 240.778 468.014 242.247 466.162 244.426C464.31 246.605 463.273 249.36 463.228 252.22C463.183 255.079 464.133 257.865 465.915 260.102C467.698 262.338 470.202 263.886 472.999 264.48L472.536 293.191H478.662L478.198 264.48C480.957 263.883 483.429 262.36 485.203 260.164C486.977 257.969 487.947 255.232 487.951 252.409V252.409ZM475.599 259.032C474.289 259.032 473.008 258.644 471.919 257.916C470.83 257.189 469.981 256.154 469.48 254.944C468.979 253.734 468.848 252.402 469.103 251.117C469.359 249.833 469.989 248.652 470.916 247.726C471.842 246.8 473.022 246.169 474.307 245.914C475.592 245.658 476.923 245.789 478.133 246.29C479.344 246.792 480.378 247.641 481.106 248.73C481.834 249.819 482.222 251.099 482.222 252.409C482.222 253.279 482.051 254.14 481.718 254.944C481.385 255.747 480.897 256.478 480.282 257.093C479.667 257.708 478.937 258.195 478.133 258.528C477.33 258.861 476.469 259.032 475.599 259.032V259.032Z" fill="#FF0000"/>
<path d="M475.598 259.216C479.357 259.216 482.403 256.169 482.403 252.411C482.403 248.652 479.357 245.605 475.598 245.605C471.84 245.605 468.793 248.652 468.793 252.411C468.793 256.169 471.84 259.216 475.598 259.216Z" fill="white"/>
<path d="M475.598 113.375V137.897" stroke="#FF0000" stroke-width="3.34035" stroke-linecap="round" stroke-linejoin="round"/>
<path d="M475.598 367.766V392.287" stroke="#FF0000" stroke-width="3.34035" stroke-linecap="round" stroke-linejoin="round"/>
<path d="M405.875 132.07L418.128 153.297" stroke="#FF0000" stroke-width="3.34035" stroke-linecap="round" stroke-linejoin="round"/>
<path d="M533.07 352.367L545.323 373.611" stroke="#FF0000" stroke-width="3.34035" stroke-linecap="round" stroke-linejoin="round"/>
<path d="M354.828 183.098L376.055 195.367" stroke="#FF0000" stroke-width="3.34035" stroke-linecap="round" stroke-linejoin="round"/>
<path d="M575.125 310.297L596.368 322.566" stroke="#FF0000" stroke-width="3.34035" stroke-linecap="round" stroke-linejoin="round"/>
<path d="M615.045 252.84H590.523" stroke="#263238" stroke-width="3.34035" stroke-linecap="round" stroke-linejoin="round"/>
<path d="M360.655 252.84H336.133" stroke="#263238" stroke-width="3.34035" stroke-linecap="round" stroke-linejoin="round"/>
<path d="M615.045 252.84H590.523" stroke="#FF0000" stroke-width="3.34035" stroke-linecap="round" stroke-linejoin="round"/>
<path d="M360.655 252.84H336.133" stroke="#FF0000" stroke-width="3.34035" stroke-linecap="round" stroke-linejoin="round"/>
<path d="M596.368 183.098L575.125 195.367" stroke="#FF0000" stroke-width="3.34035" stroke-linecap="round" stroke-linejoin="round"/>
<path d="M376.055 310.297L354.828 322.566" stroke="#FF0000" stroke-width="3.34035" stroke-linecap="round" stroke-linejoin="round"/>
<path d="M545.323 132.07L533.07 153.297" stroke="#FF0000" stroke-width="3.34035" stroke-linecap="round" stroke-linejoin="round"/>
<path d="M418.128 352.367L405.875 373.611" stroke="#FF0000" stroke-width="3.34035" stroke-linecap="round" stroke-linejoin="round"/>
<path d="M482.619 77.0312H468.578V89.4495H482.619V77.0312Z" stroke="#263238" stroke-width="0.835087" stroke-linecap="round" stroke-linejoin="round"/>
<path d="M486.66 43.8477H464.539V76.3172H486.66V43.8477Z" stroke="#263238" stroke-width="0.835087" stroke-linecap="round" stroke-linejoin="round"/>
<path d="M491.261 21H459.238V43.121H491.261V21Z" fill="#DEDEDE"/>
<path d="M491.608 21H459.586V43.121H491.608V21Z" stroke="#263238" stroke-width="0.835087" stroke-linecap="round" stroke-linejoin="round"/>
<path d="M463.148 34.7588V21.4961" stroke="#263238" stroke-width="0.835087" stroke-linecap="round" stroke-linejoin="round"/>
<path d="M463.148 43.5366V37.8242" stroke="#263238" stroke-width="0.835087" stroke-linecap="round" stroke-linejoin="round"/>
<path d="M467.219 43.5343V21.4961" stroke="#263238" stroke-width="0.835087" stroke-linecap="round" stroke-linejoin="round"/>
<path d="M471.293 27.0098V21.4961" stroke="#263238" stroke-width="0.835087" stroke-linecap="round" stroke-linejoin="round"/>
<path d="M471.293 43.5355V29.6602" stroke="#263238" stroke-width="0.835087" stroke-linecap="round" stroke-linejoin="round"/>
<path d="M478.031 43.5343V21.4961" stroke="#263238" stroke-width="0.835087" stroke-linecap="round" stroke-linejoin="round"/>
<g style="mix-blend-mode:multiply" opacity="0.3">
<path d="M232.457 189.689L244.362 190.517L243.965 185.997C243.965 185.997 233.285 185.169 232.457 189.689Z" fill="#92E3A9"/>
</g>
<g style="mix-blend-mode:multiply" opacity="0.3">
<path d="M199.656 283.617L223.962 267.507L192.917 279.346C192.917 279.346 190.102 216.013 192.221 211.095C194.341 206.177 207.703 197.021 207.703 197.021C207.703 197.021 206.908 191.921 211.213 189.984C214.166 188.881 217.417 188.881 220.369 189.984L223.433 191.143C219.906 189.156 214.21 185.133 205.451 176.953H205.252L207.372 178.99L206.444 187.269L197.139 194.869C195.036 196.988 187.089 207.088 187.089 207.088L186.625 290.969L199.258 282.839L199.656 283.617Z" fill="#92E3A9"/>
</g>
<path d="M206.361 187.305C206.361 187.305 187.005 202.985 187.005 207.174C187.005 211.363 185.614 289.217 186.541 291.055C187.469 292.893 223.962 267.51 223.962 267.51L220.269 233.865" stroke="#263238" stroke-width="0.835087" stroke-linecap="round" stroke-linejoin="round"/>
<path d="M210.055 225.566L249.23 256.91" stroke="#263238" stroke-width="0.835087" stroke-linecap="round" stroke-linejoin="round"/>
<g style="mix-blend-mode:multiply" opacity="0.3">
<path d="M379.685 138.758L356.09 131.506L279.18 118.574L259.691 139.95C259.691 139.95 276.58 129.403 281.498 129.403C286.415 129.403 360.594 150.497 367.598 152.468L379.685 138.758Z" fill="#92E3A9"/>
</g>
<path d="M236.578 154.686C236.578 154.686 274.578 118.574 279.181 118.574C283.784 118.574 359.833 133.774 365.363 134.701C370.894 135.629 380.116 137.466 380.116 137.466C380.116 137.466 363.989 157.75 358.459 164.654C352.929 171.559 350.18 175.715 350.18 175.715L287.956 147.153" stroke="#263238" stroke-width="0.835087" stroke-linecap="round" stroke-linejoin="round"/>
<path d="M298.535 154.121L314.215 195.598" stroke="#263238" stroke-width="0.835087" stroke-linecap="round" stroke-linejoin="round"/>
<path d="M250.603 216.344L246.91 220.037L228.945 196.988" stroke="#263238" stroke-width="0.835087" stroke-linecap="round" stroke-linejoin="round"/>
<path d="M280.871 155.762L299.101 152.566L283.603 163.494" stroke="#263238" stroke-width="0.417543" stroke-linecap="round" stroke-linejoin="round"/>
<path d="M220.187 233.863L197.039 230.469" stroke="#263238" stroke-width="0.417543" stroke-linecap="round" stroke-linejoin="round"/>
<path d="M207.29 179.008C205.626 183.125 205.462 187.697 206.826 191.923C209.128 198.827 216.959 210.815 216.959 210.815L227.093 196.526" stroke="#263238" stroke-width="0.835087" stroke-linecap="round" stroke-linejoin="round"/>
<path d="M230.319 190.996C230.319 190.996 235.403 186.393 240.006 186.393H247.837C247.837 186.393 246.463 168.411 240.006 158.725C233.548 149.039 224.789 154.122 224.789 154.122" stroke="#263238" stroke-width="0.835087" stroke-linecap="round" stroke-linejoin="round"/>
<path d="M222.023 270.274L277.342 244.46L281.945 228.333L300.837 224.227C300.837 224.227 304.53 220.535 304.066 224.227C303.603 227.919 298.536 229.294 296.698 232.986C294.86 236.678 294.844 244.046 292.542 247.275C290.241 250.504 281.945 254.196 281.945 254.196C281.945 254.196 219.722 306.27 215.119 309.035C210.516 311.8 201.293 285.523 201.293 285.523" fill="white"/>
<g style="mix-blend-mode:multiply" opacity="0.3">
<path d="M199.656 283.618C201.792 287.046 210.518 301.236 211.131 306.799C211.843 313.141 217.472 306.799 217.472 306.799L268.139 264.594C268.139 264.594 218.168 296.235 214.028 294.828C209.889 293.421 209.061 282.873 209.061 282.873L223.963 267.508L199.656 283.618Z" fill="#92E3A9"/>
</g>
<path d="M222.023 270.274L277.342 244.46L281.945 228.333L300.837 224.227C300.837 224.227 304.53 220.535 304.066 224.227C303.603 227.919 298.536 229.294 296.698 232.986C294.86 236.678 294.844 244.046 292.542 247.275C290.241 250.504 281.945 254.196 281.945 254.196C281.945 254.196 219.722 306.27 215.119 309.035C210.516 311.8 201.293 285.523 201.293 285.523" stroke="#263238" stroke-width="0.835087" stroke-linecap="round" stroke-linejoin="round"/>
<path d="M300.838 224.227C300.838 224.227 291.814 229.608 292.725 231.429" stroke="#263238" stroke-width="0.417543" stroke-linecap="round" stroke-linejoin="round"/>
<path d="M293.635 225.914L286.797 229.557" stroke="#263238" stroke-width="0.417543" stroke-linecap="round" stroke-linejoin="round"/>
</svg>
